<svg width="120" height="80" viewBox="0 0 120 80" xmlns="http://www.w3.org/2000/svg">
  <!-- Ombre portée -->
  <ellipse cx="60" cy="69" rx="50" ry="8" fill="#000" opacity="0.12"/>
  
  <!-- Carrosserie principale -->
  <path d="M 21,52 L 31,39 L 43,32 L 77,32 L 89,39 L 99,52 L 99,59 L 21,59 Z" 
        fill="#3B82F6" opacity="0.95"/>
  
  <!-- Toit -->
  <path d="M 42,32 L 49,25 L 71,25 L 78,32 Z" 
        fill="#2563EB" opacity="0.92"/>
  
  <!-- Vitres teintées -->
  <path d="M 44,30 L 50,27 L 59,27 L 59,31 L 44,31 Z" 
        fill="#1E3A8A" opacity="0.5"/>
  <path d="M 61,27 L 70,27 L 76,30 L 76,31 L 61,31 Z" 
        fill="#1E3A8A" opacity="0.5"/>
  
  <!-- Pare-brise avant large -->
  <path d="M 79,33 L 90,40 L 90,50 L 79,50 Z" 
        fill="#BFDBFE" opacity="0.4"/>
  
  <!-- Pare-brise arrière -->
  <path d="M 41,33 L 30,40 L 30,48 L 41,48 Z" 
        fill="#BFDBFE" opacity="0.35"/>
  
  <!-- Calandre chromée -->
  <rect x="95" y="45" width="4" height="9" rx="0.5" fill="#CBD5E1" opacity="0.9"/>
  <rect x="96" y="46" width="0.5" height="7" fill="#94A3B8"/>
  <rect x="97.5" y="46" width="0.5" height="7" fill="#94A3B8"/>
  
  <!-- Phares LED avant -->
  <ellipse cx="95" cy="43" rx="4" ry="2.5" fill="#FFF9C4" opacity="0.95"/>
  <ellipse cx="95" cy="55" rx="4" ry="2.5" fill="#FFF9C4" opacity="0.95"/>
  <ellipse cx="94" cy="43" rx="2" ry="1.5" fill="#FFEB3B"/>
  
  <!-- Feux arrière LED -->
  <rect x="22" y="47" width="3" height="7" rx="1.5" fill="#EF4444" opacity="0.9"/>
  <rect x="23.5" y="48" width="0.5" height="5" fill="#FCA5A5" opacity="0.7"/>
  
  <!-- Roue avant -->
  <circle cx="81" cy="59" r="11" fill="#1F2937"/>
  <circle cx="81" cy="59" r="8" fill="#374151"/>
  <circle cx="81" cy="59" r="5" fill="#4B5563"/>
  <circle cx="81" cy="59" r="2.5" fill="#6B7280"/>
  
  <!-- Roue arrière -->
  <circle cx="39" cy="59" r="11" fill="#1F2937"/>
  <circle cx="39" cy="59" r="8" fill="#374151"/>
  <circle cx="39" cy="59" r="5" fill="#4B5563"/>
  <circle cx="39" cy="59" r="2.5" fill="#6B7280"/>
  
  <!-- Lignes de design -->
  <path d="M 45,40 L 84,40" stroke="#2563EB" stroke-width="1.5" opacity="0.6"/>
  <path d="M 39,47 L 90,47" stroke="#1D4ED8" stroke-width="1.5" opacity="0.5"/>
  
  <!-- Reflets lumineux premium -->
  <ellipse cx="60" cy="35" rx="21" ry="3" fill="#fff" opacity="0.35"/>
  <ellipse cx="72" cy="48" rx="15" ry="2.5" fill="#fff" opacity="0.3"/>
  
  <!-- Rétroviseurs -->
  <rect x="79" y="35" width="2" height="4.5" fill="#374151" opacity="0.85"/>
  <ellipse cx="80" cy="37" rx="3" ry="2.5" fill="#64748B" opacity="0.8"/>
  <rect x="39" y="35" width="2" height="4.5" fill="#374151" opacity="0.85"/>
  <ellipse cx="38" cy="37" rx="3" ry="2.5" fill="#64748B" opacity="0.8"/>
  
  <!-- Bas de caisse chromé -->
  <rect x="33" y="58" width="54" height="1.5" fill="#94A3B8" opacity="0.7"/>
</svg>