<svg viewBox="0 0 120 80" xmlns="http://www.w3.org/2000/svg">
  <!-- Ombre portée -->
  <ellipse cx="60" cy="72" rx="52" ry="7" fill="#000000" opacity="0.15"/>
  
  <!-- Roue arrière -->
  <circle cx="32" cy="60" r="15" fill="#2C2C2C" stroke="#1A1A1A" stroke-width="2.5"/>
  <circle cx="32" cy="60" r="10" fill="#404040" stroke="#2C2C2C" stroke-width="1.5"/>
  <circle cx="32" cy="60" r="5" fill="#5A5A5A"/>
  
  <!-- Roue avant -->
  <circle cx="88" cy="60" r="15" fill="#2C2C2C" stroke="#1A1A1A" stroke-width="2.5"/>
  <circle cx="88" cy="60" r="10" fill="#404040" stroke="#2C2C2C" stroke-width="1.5"/>
  <circle cx="88" cy="60" r="5" fill="#5A5A5A"/>
  
  <!-- Carrosserie berline -->
  <path d="M 18 60 L 22 50 Q 28 28 48 26 L 72 26 Q 90 28 96 50 L 102 60 Z" 
        fill="#3B82F6" stroke="#2563EB" stroke-width="2.5"/>
  
  <!-- Toit berline -->
  <path d="M 38 26 Q 40 16 52 14 L 68 14 Q 80 16 82 26" 
        fill="#60A5FA" stroke="#3B82F6" stroke-width="2"/>
  
  <!-- Vitres avant -->
  <path d="M 40 25 Q 42 19 52 17 L 58 17 L 58 25 Z" 
        fill="#DBEAFE" opacity="0.5" stroke="#3B82F6" stroke-width="1"/>
  
  <!-- Vitres arrière -->
  <path d="M 62 17 L 68 17 Q 78 19 80 25 L 62 25 Z" 
        fill="#DBEAFE" opacity="0.5" stroke="#3B82F6" stroke-width="1"/>
  
  <!-- Phares LED modernes -->
  <path d="M 94 38 L 100 38 L 98 42 Z" fill="#FFF" opacity="0.95"/>
  <path d="M 94 48 L 100 48 L 98 52 Z" fill="#FFF" opacity="0.95"/>
  
  <!-- Feux arrière LED -->
  <rect x="18" y="46" width="4" height="8" rx="1" fill="#EF4444" opacity="0.9"/>
  
  <!-- Ligne de chrome -->
  <path d="M 30 46 L 90 46" stroke="#E0E7FF" stroke-width="1.5" opacity="0.6"/>
  
  <!-- Rétroviseur -->
  <ellipse cx="85" cy="30" rx="3" ry="2" fill="#2563EB"/>
</svg>