<svg width="200" height="120" viewBox="0 0 200 120" xmlns="http://www.w3.org/2000/svg">
  <!-- Ombre portée -->
  <ellipse cx="100" cy="103" rx="80" ry="13" fill="#000" opacity="0.15"/>
  
  <!-- Carrosserie principale - plus longue et plus basse -->
  <path d="M 35,78 L 52,58 L 72,48 L 128,48 L 148,58 L 165,78 L 165,88 L 35,88 Z" 
        fill="#3B82F6" opacity="0.95"/>
  
  <!-- Toit -->
  <path d="M 70,48 L 82,38 L 118,38 L 130,48 Z" 
        fill="#2563EB" opacity="0.92"/>
  
  <!-- Vitres teintées -->
  <path d="M 73,46 L 84,40 L 98,40 L 98,47 L 73,47 Z" 
        fill="#1E3A8A" opacity="0.5"/>
  <path d="M 102,40 L 116,40 L 127,46 L 127,47 L 102,47 Z" 
        fill="#1E3A8A" opacity="0.5"/>
  
  <!-- Pare-brise avant large -->
  <path d="M 132,50 L 150,60 L 150,75 L 132,75 Z" 
        fill="#BFDBFE" opacity="0.4"/>
  
  <!-- Pare-brise arrière -->
  <path d="M 68,50 L 50,60 L 50,72 L 68,72 Z" 
        fill="#BFDBFE" opacity="0.35"/>
  
  <!-- Calandre chromée -->
  <rect x="158" y="68" width="7" height="14" rx="1" fill="#CBD5E1" opacity="0.9"/>
  <rect x="160" y="70" width="1" height="10" fill="#94A3B8"/>
  <rect x="162" y="70" width="1" height="10" fill="#94A3B8"/>
  
  <!-- Phares LED avant -->
  <ellipse cx="158" cy="65" rx="6" ry="4" fill="#FFF9C4" opacity="0.95"/>
  <ellipse cx="158" cy="83" rx="6" ry="4" fill="#FFF9C4" opacity="0.95"/>
  <ellipse cx="156" cy="65" rx="3" ry="2" fill="#FFEB3B"/>
  
  <!-- Feux arrière LED -->
  <rect x="37" y="70" width="5" height="10" rx="2" fill="#EF4444" opacity="0.9"/>
  <rect x="39" y="72" width="1" height="6" fill="#FCA5A5" opacity="0.7"/>
  
  <!-- Roue avant -->
  <circle cx="135" cy="88" r="17" fill="#1F2937"/>
  <circle cx="135" cy="88" r="12" fill="#374151"/>
  <circle cx="135" cy="88" r="8" fill="#4B5563"/>
  <circle cx="135" cy="88" r="4" fill="#6B7280"/>
  
  <!-- Roue arrière -->
  <circle cx="65" cy="88" r="17" fill="#1F2937"/>
  <circle cx="65" cy="88" r="12" fill="#374151"/>
  <circle cx="65" cy="88" r="8" fill="#4B5563"/>
  <circle cx="65" cy="88" r="4" fill="#6B7280"/>
  
  <!-- Lignes de design -->
  <path d="M 75,60 L 140,60" stroke="#2563EB" stroke-width="2" opacity="0.6"/>
  <path d="M 65,70 L 150,70" stroke="#1D4ED8" stroke-width="2" opacity="0.5"/>
  
  <!-- Reflets lumineux premium -->
  <ellipse cx="100" cy="53" rx="35" ry="5" fill="#fff" opacity="0.35"/>
  <ellipse cx="120" cy="72" rx="25" ry="4" fill="#fff" opacity="0.3"/>
  
  <!-- Rétroviseurs -->
  <rect x="132" y="52" width="3" height="7" fill="#374151" opacity="0.85"/>
  <ellipse cx="134" cy="55" rx="5" ry="4" fill="#64748B" opacity="0.8"/>
  <rect x="65" y="52" width="3" height="7" fill="#374151" opacity="0.85"/>
  <ellipse cx="63" cy="55" rx="5" ry="4" fill="#64748B" opacity="0.8"/>
  
  <!-- Bas de caisse chromé -->
  <rect x="55" y="86" width="90" height="2" fill="#94A3B8" opacity="0.7"/>
</svg>