<svg width="120" height="80" viewBox="0 0 120 80" xmlns="http://www.w3.org/2000/svg">
  <!-- Ombre portée -->
  <ellipse cx="60" cy="65" rx="48" ry="8" fill="#000" opacity="0.1"/>
  
  <!-- Carrosserie principale -->
  <path d="M 24,40 L 33,27 L 45,20 L 75,20 L 87,27 L 96,40 L 96,47 L 24,47 Z" 
        fill="#10B981" opacity="0.95"/>
  
  <!-- Toit -->
  <path d="M 39,20 L 48,13 L 72,13 L 81,20 Z" 
        fill="#059669" opacity="0.9"/>
  
  <!-- Vitres -->
  <path d="M 41,18 L 49,15 L 57,15 L 57,19 L 41,19 Z" 
        fill="#E0F2FE" opacity="0.4"/>
  <path d="M 63,15 L 71,15 L 79,18 L 79,19 L 63,19 Z" 
        fill="#E0F2FE" opacity="0.4"/>
  
  <!-- Pare-brise avant -->
  <path d="M 83,21 L 89,28 L 89,38 L 83,38 Z" 
        fill="#BFDBFE" opacity="0.35"/>
  
  <!-- Phares avant -->
  <circle cx="91" cy="32" r="3" fill="#FFF9C4" opacity="0.9"/>
  <circle cx="91" cy="39" r="3" fill="#FFF9C4" opacity="0.9"/>
  
  <!-- Phares arrière -->
  <rect x="25" y="35" width="2.5" height="5" rx="1.5" fill="#EF4444" opacity="0.85"/>
  
  <!-- Roue avant -->
  <circle cx="78" cy="47" r="11" fill="#1F2937"/>
  <circle cx="78" cy="47" r="7" fill="#374151"/>
  <circle cx="78" cy="47" r="4.5" fill="#4B5563"/>
  
  <!-- Roue arrière -->
  <circle cx="36" cy="47" r="11" fill="#1F2937"/>
  <circle cx="36" cy="47" r="7" fill="#374151"/>
  <circle cx="36" cy="47" r="4.5" fill="#4B5563"/>
  
  <!-- Détails carrosserie -->
  <path d="M 48,27 L 72,27" stroke="#059669" stroke-width="1.5" opacity="0.6"/>
  <path d="M 42,33 L 84,33" stroke="#059669" stroke-width="1.5" opacity="0.6"/>
  
  <!-- Reflets lumineux -->
  <ellipse cx="60" cy="23" rx="18" ry="2.5" fill="#fff" opacity="0.3"/>
  <ellipse cx="66" cy="35" rx="12" ry="2" fill="#fff" opacity="0.25"/>
  
  <!-- Rétroviseur -->
  <rect x="81" y="32" width="2" height="4" fill="#374151" opacity="0.8"/>
  <ellipse cx="82" cy="34" rx="2.5" ry="2" fill="#64748B" opacity="0.7"/>
</svg>