<svg viewBox="0 0 120 80" xmlns="http://www.w3.org/2000/svg">
  <!-- Ombre portée -->
  <ellipse cx="60" cy="70" rx="48" ry="7" fill="#000000" opacity="0.15"/>
  
  <!-- Roue arrière -->
  <circle cx="35" cy="58" r="14" fill="#2C2C2C" stroke="#1A1A1A" stroke-width="2.5"/>
  <circle cx="35" cy="58" r="9" fill="#404040"/>
  <circle cx="35" cy="58" r="4" fill="#5A5A5A"/>
  
  <!-- Roue avant -->
  <circle cx="85" cy="58" r="14" fill="#2C2C2C" stroke="#1A1A1A" stroke-width="2.5"/>
  <circle cx="85" cy="58" r="9" fill="#404040"/>
  <circle cx="85" cy="58" r="4" fill="#5A5A5A"/>
  
  <!-- Carrosserie principale -->
  <path d="M 20 58 L 25 48 Q 30 30 45 28 L 75 28 Q 88 30 93 48 L 100 58 Z" 
        fill="#10B981" stroke="#059669" stroke-width="2.5"/>
  
  <!-- Toit -->
  <path d="M 40 28 Q 42 20 50 18 L 70 18 Q 78 20 80 28" 
        fill="#34D399" stroke="#10B981" stroke-width="2"/>
  
  <!-- Vitres -->
  <path d="M 42 27 Q 44 22 50 21 L 58 21 L 58 27 Z" 
        fill="#5EEAD4" opacity="0.4" stroke="#10B981" stroke-width="1"/>
  <path d="M 62 21 L 70 21 Q 76 22 78 27 L 62 27 Z" 
        fill="#5EEAD4" opacity="0.4" stroke="#10B981" stroke-width="1"/>
  
  <!-- Phares avant -->
  <ellipse cx="92" cy="40" rx="6" ry="4" fill="#FFF" opacity="0.9"/>
  <ellipse cx="92" cy="48" rx="4" ry="3" fill="#FFEB3B" opacity="0.8"/>
  
  <!-- Feux arrière -->
  <ellipse cx="23" cy="48" rx="3" ry="5" fill="#EF4444" opacity="0.9"/>
  
  <!-- Badge ECO -->
  <circle cx="60" cy="42" r="6" fill="#34D399" stroke="#059669" stroke-width="1.5"/>
  <text x="60" y="45" text-anchor="middle" font-size="7" font-weight="bold" fill="#FFF">E</text>
</svg>