<svg viewBox="0 0 120 80" xmlns="http://www.w3.org/2000/svg">
  <!-- Ombre portée -->
  <ellipse cx="60" cy="70" rx="45" ry="6" fill="#000000" opacity="0.15"/>
  
  <!-- Roue arrière -->
  <circle cx="30" cy="55" r="15" fill="#2C2C2C" stroke="#1A1A1A" stroke-width="2"/>
  <circle cx="30" cy="55" r="10" fill="#404040" stroke="#2C2C2C" stroke-width="1.5"/>
  <circle cx="30" cy="55" r="5" fill="#5A5A5A"/>
  
  <!-- Roue avant -->
  <circle cx="85" cy="55" r="15" fill="#2C2C2C" stroke="#1A1A1A" stroke-width="2"/>
  <circle cx="85" cy="55" r="10" fill="#404040" stroke="#2C2C2C" stroke-width="1.5"/>
  <circle cx="85" cy="55" r="5" fill="#5A5A5A"/>
  
  <!-- Cadre et moteur -->
  <path d="M 30 55 L 40 35 L 55 30 L 70 35 L 85 55" 
        fill="none" stroke="#FF9800" stroke-width="4" stroke-linejoin="round"/>
  
  <!-- Réservoir -->
  <ellipse cx="55" cy="32" rx="16" ry="10" fill="#FF9800" stroke="#F57C00" stroke-width="2"/>
  <ellipse cx="55" cy="32" rx="10" ry="6" fill="#FFB74D" opacity="0.6"/>
  
  <!-- Selle -->
  <ellipse cx="40" cy="37" rx="12" ry="6" fill="#2C2C2C" stroke="#1A1A1A" stroke-width="1.5"/>
  
  <!-- Guidon -->
  <path d="M 78 35 L 85 30 L 90 28" 
        fill="none" stroke="#FF9800" stroke-width="3" stroke-linecap="round"/>
  <circle cx="90" cy="28" r="2.5" fill="#FFB74D"/>
  
  <!-- Phare avant -->
  <circle cx="85" cy="42" r="4" fill="#FFEB3B" opacity="0.9"/>
  <circle cx="85" cy="42" r="2" fill="#FFF" opacity="0.7"/>
  
  <!-- Feu arrière -->
  <circle cx="28" cy="42" r="2.5" fill="#F44336" opacity="0.9"/>
</svg>