<svg viewBox="0 0 120 80" xmlns="http://www.w3.org/2000/svg">
  <!-- Ombre portée élégante -->
  <ellipse cx="60" cy="72" rx="54" ry="8" fill="#000000" opacity="0.2"/>
  
  <!-- Roue arrière premium -->
  <circle cx="30" cy="60" r="16" fill="#2C2C2C" stroke="#1A1A1A" stroke-width="3"/>
  <circle cx="30" cy="60" r="11" fill="#404040" stroke="#8B5CF6" stroke-width="1.5"/>
  <circle cx="30" cy="60" r="6" fill="#5A5A5A"/>
  <circle cx="30" cy="60" r="3" fill="#A78BFA"/>
  
  <!-- Roue avant premium -->
  <circle cx="90" cy="60" r="16" fill="#2C2C2C" stroke="#1A1A1A" stroke-width="3"/>
  <circle cx="90" cy="60" r="11" fill="#404040" stroke="#8B5CF6" stroke-width="1.5"/>
  <circle cx="90" cy="60" r="6" fill="#5A5A5A"/>
  <circle cx="90" cy="60" r="3" fill="#A78BFA"/>
  
  <!-- Carrosserie SUV/Luxe -->
  <path d="M 16 60 L 20 48 Q 26 24 50 22 L 70 22 Q 92 24 98 48 L 104 60 Z" 
        fill="#8B5CF6" stroke="#7C3AED" stroke-width="3"/>
  
  <!-- Toit panoramique -->
  <path d="M 36 22 Q 38 12 54 10 L 66 10 Q 82 12 84 22" 
        fill="#A78BFA" stroke="#8B5CF6" stroke-width="2"/>
  
  <!-- Vitres teintées -->
  <path d="M 38 21 Q 40 15 54 13 L 58 13 L 58 21 Z" 
        fill="#C4B5FD" opacity="0.4" stroke="#7C3AED" stroke-width="1"/>
  <path d="M 62 13 L 66 13 Q 80 15 82 21 L 62 21 Z" 
        fill="#C4B5FD" opacity="0.4" stroke="#7C3AED" stroke-width="1"/>
  
  <!-- Calandre chromée -->
  <rect x="96" y="36" width="6" height="16" rx="1" fill="#DDD6FE" stroke="#8B5CF6" stroke-width="1.5"/>
  <line x1="97" y1="38" x2="97" y2="50" stroke="#A78BFA" stroke-width="0.5"/>
  <line x1="99" y1="38" x2="99" y2="50" stroke="#A78BFA" stroke-width="0.5"/>
  <line x1="101" y1="38" x2="101" y2="50" stroke="#A78BFA" stroke-width="0.5"/>
  
  <!-- Phares premium LED -->
  <ellipse cx="97" cy="32" rx="5" ry="3" fill="#FFF" opacity="0.95"/>
  <ellipse cx="97" cy="56" rx="4" ry="2.5" fill="#FFEB3B" opacity="0.9"/>
  
  <!-- Feux arrière signature -->
  <rect x="16" y="44" width="5" height="10" rx="1.5" fill="#A78BFA" opacity="0.3"/>
  <rect x="17" y="45" width="3" height="8" rx="1" fill="#EF4444" opacity="0.95"/>
  
  <!-- Badge Premium -->
  <circle cx="60" cy="42" r="7" fill="#DDD6FE" stroke="#7C3AED" stroke-width="1.5"/>
  <path d="M 60 37 L 62 41 L 66 41 L 63 44 L 64 48 L 60 45 L 56 48 L 57 44 L 54 41 L 58 41 Z" 
        fill="#FFD700" stroke="#F59E0B" stroke-width="0.5"/>
</svg>