<svg width="200" height="120" viewBox="0 0 200 120" xmlns="http://www.w3.org/2000/svg">
  <!-- Ombre portée luxe -->
  <ellipse cx="100" cy="104" rx="85" ry="14" fill="#000" opacity="0.18"/>
  
  <!-- Carrosserie principale luxe - profil élégant -->
  <path d="M 30,80 L 50,60 L 70,50 L 130,50 L 150,60 L 170,80 L 170,90 L 30,90 Z" 
        fill="#8B5CF6" opacity="0.96"/>
  
  <!-- Toit panoramique -->
  <path d="M 68,50 L 78,40 L 122,40 L 132,50 Z" 
        fill="#7C3AED" opacity="0.94"/>
  
  <!-- Vitres teintées sombres premium -->
  <path d="M 71,48 L 80,42 L 100,42 L 100,49 L 71,49 Z" 
        fill="#4C1D95" opacity="0.6"/>
  <path d="M 100,42 L 120,42 L 129,48 L 129,49 L 100,49 Z" 
        fill="#4C1D95" opacity="0.6"/>
  
  <!-- Pare-brise avant incliné -->
  <path d="M 134,52 L 155,62 L 155,77 L 134,77 Z" 
        fill="#C4B5FD" opacity="0.45"/>
  
  <!-- Pare-brise arrière -->
  <path d="M 66,52 L 45,62 L 45,74 L 66,74 Z" 
        fill="#C4B5FD" opacity="0.4"/>
  
  <!-- Calandre chromée premium avec logo -->
  <rect x="163" y="70" width="8" height="16" rx="1" fill="#E2E8F0" opacity="0.95"/>
  <circle cx="167" cy="78" r="4" fill="#CBD5E1" opacity="0.9"/>
  <path d="M 165,78 L 167,76 L 169,78 L 167,80 Z" fill="#8B5CF6" opacity="0.8"/>
  
  <!-- Phares LED Matrix premium -->
  <ellipse cx="162" cy="66" rx="7" ry="5" fill="#FFF9C4" opacity="0.98"/>
  <ellipse cx="162" cy="86" rx="7" ry="5" fill="#FFF9C4" opacity="0.98"/>
  <ellipse cx="160" cy="66" rx="4" ry="3" fill="#FFEB3B"/>
  <ellipse cx="160" cy="86" rx="4" ry="3" fill="#FFEB3B"/>
  <circle cx="158" cy="66" r="2" fill="#fff"/>
  
  <!-- Feux arrière LED signature -->
  <rect x="32" y="72" width="6" height="12" rx="3" fill="#DC2626" opacity="0.95"/>
  <rect x="34" y="74" width="2" height="8" fill="#FCA5A5" opacity="0.8"/>
  <line x1="35" y1="76" x2="35" y2="80" stroke="#fff" stroke-width="0.5" opacity="0.6"/>
  
  <!-- Roue avant premium (jantes alliage) -->
  <circle cx="140" cy="90" r="18" fill="#1F2937"/>
  <circle cx="140" cy="90" r="13" fill="#374151"/>
  <circle cx="140" cy="90" r="9" fill="#E2E8F0" opacity="0.9"/>
  <circle cx="140" cy="90" r="5" fill="#94A3B8"/>
  <!-- Rayons de jante -->
  <line x1="140" y1="85" x2="140" y2="95" stroke="#CBD5E1" stroke-width="1.5"/>
  <line x1="135" y1="90" x2="145" y2="90" stroke="#CBD5E1" stroke-width="1.5"/>
  
  <!-- Roue arrière premium -->
  <circle cx="60" cy="90" r="18" fill="#1F2937"/>
  <circle cx="60" cy="90" r="13" fill="#374151"/>
  <circle cx="60" cy="90" r="9" fill="#E2E8F0" opacity="0.9"/>
  <circle cx="60" cy="90" r="5" fill="#94A3B8"/>
  <!-- Rayons de jante -->
  <line x1="60" y1="85" x2="60" y2="95" stroke="#CBD5E1" stroke-width="1.5"/>
  <line x1="55" y1="90" x2="65" y2="90" stroke="#CBD5E1" stroke-width="1.5"/>
  
  <!-- Lignes de design premium -->
  <path d="M 75,62 L 145,62" stroke="#7C3AED" stroke-width="2.5" opacity="0.7"/>
  <path d="M 65,73 L 155,73" stroke="#6D28D9" stroke-width="2" opacity="0.6"/>
  
  <!-- Reflets lumineux premium -->
  <ellipse cx="100" cy="55" rx="40" ry="6" fill="#fff" opacity="0.4"/>
  <ellipse cx="120" cy="75" rx="30" ry="5" fill="#fff" opacity="0.35"/>
  <path d="M 80,58 L 120,58" stroke="#fff" stroke-width="1" opacity="0.3"/>
  
  <!-- Rétroviseurs électriques -->
  <rect x="134" y="54" width="4" height="8" fill="#374151" opacity="0.9"/>
  <ellipse cx="137" cy="58" rx="6" ry="5" fill="#64748B" opacity="0.85"/>
  <ellipse cx="137" cy="57" rx="3" ry="2" fill="#94A3B8" opacity="0.5"/>
  
  <rect x="62" y="54" width="4" height="8" fill="#374151" opacity="0.9"/>
  <ellipse cx="59" cy="58" rx="6" ry="5" fill="#64748B" opacity="0.85"/>
  
  <!-- Bas de caisse chromé premium -->
  <rect x="50" y="88" width="100" height="2" fill="#CBD5E1" opacity="0.8"/>
  <line x1="50" y1="89" x2="150" y2="89" stroke="#E2E8F0" stroke-width="0.5"/>
  
  <!-- Couronne premium (logo) -->
  <g transform="translate(95, 32)">
    <path d="M 0,-3 L -2,0 L -1,3 L 1,3 L 2,0 Z" fill="#FBBF24" opacity="0.9"/>
    <circle cx="0" cy="-4" r="1" fill="#FBBF24"/>
  </g>
</svg>